<svg width="54" height="36" fill="none" xmlns="http://www.w3.org/2000/svg"><g clip-path="url(#a)" fill="#0A0A0A"><path d="M0 23.294c0-7.018 5.647-12.706 12.613-12.706 6.965 0 12.612 5.688 12.612 12.706v7.059c0 3.118-2.51 5.647-5.606 5.647h-7.006C5.647 36 0 30.31 0 23.294ZM28.377 10.02V6.354C28.377 2.844 31.2 0 34.682 0s6.306 2.844 6.306 6.353v.855a3.91 3.91 0 0 0 2.646 3.71l1.792.606C50.31 13.18 53.6 17.791 53.6 22.983v.388C53.601 30.346 47.99 36 41.065 36h-7.083c-3.096 0-5.605-2.528-5.605-5.647V10.02ZM51.66 4.582c-.428 0-.818-.099-1.17-.296a2.3 2.3 0 0 1-.817-.829 2.353 2.353 0 0 1-.293-1.172c0-.434.102-.82.304-1.16.203-.348.476-.62.819-.817A2.21 2.21 0 0 1 51.66 0c.429 0 .815.103 1.158.308.343.197.612.47.806.817.203.34.304.726.304 1.16 0 .434-.101.825-.303 1.172a2.21 2.21 0 0 1-.807.829 2.238 2.238 0 0 1-1.158.296Zm0-.332c.366 0 .694-.083.982-.248.296-.174.526-.41.69-.71.171-.3.257-.636.257-1.007a1.93 1.93 0 0 0-.257-.995 1.742 1.742 0 0 0-.69-.698 1.866 1.866 0 0 0-.982-.26c-.366 0-.697.086-.994.26a1.842 1.842 0 0 0-.69.698 2 2 0 0 0-.245.995c0 .371.082.706.245 1.006.172.3.402.537.69.71a2 2 0 0 0 .994.25Zm-.48-.71h-.361V.983h.911c.273 0 .491.07.655.213.164.134.246.323.246.568a.761.761 0 0 1-.129.438.77.77 0 0 1-.397.284l.573 1.054h-.41l-.514-.97h-.573v.97Zm1.065-1.764c0-.3-.176-.45-.526-.45h-.538v.9h.538a.625.625 0 0 0 .386-.107c.093-.079.14-.193.14-.343Z"/></g><defs><clipPath id="a"><path fill="#fff" d="M0 0h54v36H0z"/></clipPath></defs></svg>