<svg width="130" height="36" fill="none" xmlns="http://www.w3.org/2000/svg"><g clip-path="url(#a)" fill="#000"><path d="M126.034 5.602V3.48h-2.137V2.12h2.137V0h1.573v2.12h2.137v1.36h-2.137v2.122h-1.573ZM32.222 12.78h4.556v7.74l-.576 2.834c0-2.04.208-3.855.624-5.445.415-1.59 1.054-2.835 1.918-3.735.895-.93 2.014-1.395 3.356-1.395h4.412v3.87H42.58c-1.343 0-2.446.315-3.309.945-.863.63-1.502 1.59-1.918 2.88-.384 1.26-.575 2.88-.575 4.86v9.946h-4.556v-22.5ZM54.99 36c-1.47 0-2.828-.285-4.075-.855-1.215-.57-2.19-1.38-2.925-2.43-.735-1.08-1.103-2.325-1.103-3.735 0-1.86.56-3.315 1.678-4.365 1.151-1.08 2.573-1.83 4.268-2.25 1.726-.42 3.644-.69 5.754-.81 1.79-.06 3.005-.36 3.644-.9.64-.57.848-1.276.624-2.116-.192-.81-.72-1.44-1.583-1.89-.83-.48-1.982-.72-3.452-.72-1.822 0-3.26.375-4.316 1.125-1.023.72-1.535 1.8-1.535 3.24l-4.459-.45c0-1.47.432-2.79 1.295-3.96.863-1.2 2.078-2.13 3.644-2.79 1.599-.69 3.389-1.035 5.37-1.035 3.006 0 5.371.645 7.098 1.935 1.758 1.29 2.637 3.45 2.637 6.48V35.28H63v-6.3l.48-1.8c0 1.62-.336 3.105-1.008 4.455a7.355 7.355 0 0 1-2.877 3.195c-1.278.78-2.813 1.17-4.603 1.17Zm.96-3.87c1.278 0 2.445-.285 3.5-.855 1.087-.57 1.95-1.425 2.59-2.565.639-1.17.959-2.625.959-4.366v-3.24l.623-.585c0 1.2-.272 2.13-.815 2.79a3.925 3.925 0 0 1-1.966 1.306c-.8.24-1.758.42-2.877.54h-.288c-1.822.09-3.293.405-4.412.945-1.119.51-1.678 1.425-1.678 2.745 0 .66.16 1.23.48 1.71.351.48.863.87 1.534 1.17.672.27 1.455.405 2.35.405ZM70.454 12.78h4.556v7.74l-.576 2.834c0-2.04.208-3.855.623-5.445.416-1.59 1.055-2.835 1.919-3.735.895-.93 2.014-1.395 3.356-1.395h4.412v3.87h-3.932c-1.343 0-2.446.315-3.309.945-.863.63-1.502 1.59-1.918 2.88-.384 1.26-.575 2.88-.575 4.86v9.946h-4.556v-22.5ZM93.223 36c-1.47 0-2.83-.285-4.076-.855-1.215-.57-2.19-1.38-2.925-2.43-.735-1.08-1.103-2.325-1.103-3.735 0-1.86.56-3.315 1.678-4.365 1.151-1.08 2.574-1.83 4.268-2.25 1.726-.42 3.644-.69 5.754-.81 1.79-.06 3.005-.36 3.645-.9.639-.57.847-1.276.623-2.116-.192-.81-.719-1.44-1.582-1.89-.832-.48-1.983-.72-3.453-.72-1.822 0-3.26.375-4.316 1.125-1.023.72-1.534 1.8-1.534 3.24l-4.46-.45c0-1.47.432-2.79 1.295-3.96.863-1.2 2.078-2.13 3.644-2.79 1.599-.69 3.389-1.035 5.37-1.035 3.006 0 5.372.645 7.098 1.935 1.758 1.29 2.638 3.45 2.638 6.48V35.28h-4.556v-6.3l.479-1.8c0 1.62-.335 3.105-1.007 4.455a7.352 7.352 0 0 1-2.877 3.195c-1.278.78-2.813 1.17-4.603 1.17Zm.959-3.87c1.279 0 2.445-.285 3.5-.855 1.087-.57 1.95-1.425 2.59-2.565.639-1.17.959-2.625.959-4.366v-3.24l.623-.585c0 1.2-.271 2.13-.815 2.79a3.924 3.924 0 0 1-1.966 1.306c-.8.24-1.758.42-2.877.54h-.288c-1.822.09-3.293.405-4.412.945-1.118.51-1.678 1.425-1.678 2.745 0 .66.16 1.23.48 1.71.351.48.863.87 1.534 1.17.672.27 1.455.405 2.35.405ZM119.334 35.28c-2.334 0-4.124-.555-5.371-1.665-1.215-1.14-1.822-2.79-1.822-4.95V5.579h4.556v23.13c0 .9.239 1.576.719 2.026.48.45 1.199.675 2.158.675h4.315v3.87h-4.555Zm-12.372-22.5h16.927v3.87h-16.927v-3.87ZM11.413 3.778H18.27L29.683 35.28h-4.748L13.858 4.77h2.014L4.747 35.278H0l11.413-31.5Z"/><path d="M23.195 26.015v-4.537l-4.157-2.56-4.158 2.56-4.157-2.56-4.158 2.56v4.537l4.158-2.561 4.157 2.56 4.158-2.56 4.157 2.56Z"/></g><defs><clipPath id="a"><path fill="#fff" d="M0 0h130v36H0z"/></clipPath></defs></svg>