<svg width="120" height="53" fill="none" xmlns="http://www.w3.org/2000/svg"><path d="M5.5 24H.234L8.266.719h6.343L22.625 24h-5.25L11.531 6.031h-.187L5.5 24Zm-.313-9.156h12.454v3.844H5.188v-3.844ZM37.72 6.53 31.626 24h-5.47L20.08 6.531h5.11l3.671 12.516h.188L32.657 6.53h5.062Zm5.298 17.797c-1.104 0-2.1-.193-2.985-.578-.874-.396-1.562-.98-2.062-1.75-.5-.77-.75-1.73-.75-2.875 0-.98.177-1.792.531-2.438a4.363 4.363 0 0 1 1.453-1.593 7.067 7.067 0 0 1 2.094-.922 15.23 15.23 0 0 1 2.484-.438 43.597 43.597 0 0 0 2.438-.28c.615-.095 1.063-.235 1.344-.423a.96.96 0 0 0 .437-.844v-.078c0-.718-.229-1.276-.687-1.671-.448-.396-1.084-.594-1.907-.594-.864 0-1.557.193-2.078.578a2.65 2.65 0 0 0-1.015 1.437l-4.485-.359c.23-1.063.678-1.98 1.344-2.75.667-.781 1.526-1.38 2.578-1.797 1.063-.427 2.292-.64 3.688-.64.968 0 1.896.114 2.781.343.885.23 1.672.584 2.36 1.063a5.084 5.084 0 0 1 1.656 1.828c.406.75.609 1.64.609 2.672V24h-4.61v-2.438h-.124a4.91 4.91 0 0 1-1.125 1.454 5.343 5.343 0 0 1-1.688.968c-.656.23-1.416.344-2.281.344Zm1.39-3.344c.709 0 1.334-.14 1.876-.422.552-.291.979-.677 1.28-1.156.313-.49.47-1.036.47-1.64v-1.86a2.601 2.601 0 0 1-.626.266c-.26.083-.552.156-.874.219-.323.062-.646.12-.97.172-.322.041-.614.083-.874.125a5.807 5.807 0 0 0-1.5.406c-.427.177-.76.422-1 .734-.23.302-.344.682-.344 1.14 0 .657.24 1.157.719 1.5.479.345 1.093.516 1.843.516Zm17.001 3.297c-1.333 0-2.536-.343-3.61-1.031-1.072-.688-1.921-1.698-2.546-3.031-.625-1.344-.938-2.985-.938-4.922 0-2 .323-3.667.97-5 .645-1.333 1.504-2.328 2.577-2.985a6.534 6.534 0 0 1 3.516-1c.979 0 1.797.167 2.453.5.656.323 1.188.73 1.594 1.22.406.489.713.973.922 1.452h.14V.72h4.844V24h-4.766v-2.797h-.218c-.22.48-.537.959-.954 1.438-.416.468-.953.859-1.609 1.172-.646.312-1.437.468-2.375.468Zm1.516-3.843c.781 0 1.443-.214 1.984-.641.552-.438.969-1.042 1.25-1.813.292-.77.438-1.672.438-2.703 0-1.041-.141-1.943-.422-2.703-.282-.77-.698-1.364-1.25-1.781-.552-.427-1.219-.64-2-.64-.792 0-1.459.218-2 .655-.542.438-.953 1.042-1.235 1.813-.28.76-.422 1.646-.422 2.656 0 1.01.141 1.906.422 2.688.282.77.693 1.375 1.235 1.812.552.438 1.218.657 2 .657Zm15.563 3.89c-1.104 0-2.1-.193-2.984-.578-.876-.396-1.563-.98-2.063-1.75-.5-.77-.75-1.73-.75-2.875 0-.98.177-1.792.531-2.438a4.363 4.363 0 0 1 1.453-1.593 7.067 7.067 0 0 1 2.094-.922 15.23 15.23 0 0 1 2.484-.438 43.597 43.597 0 0 0 2.438-.28c.615-.095 1.063-.235 1.344-.423a.96.96 0 0 0 .437-.844v-.078c0-.718-.229-1.276-.687-1.671-.448-.396-1.084-.594-1.907-.594-.864 0-1.557.193-2.078.578a2.65 2.65 0 0 0-1.015 1.437l-4.485-.359c.23-1.063.677-1.98 1.344-2.75.667-.781 1.526-1.38 2.578-1.797 1.063-.427 2.292-.64 3.688-.64.968 0 1.896.114 2.781.343.885.23 1.672.584 2.36 1.063a5.084 5.084 0 0 1 1.656 1.828c.406.75.609 1.64.609 2.672V24h-4.61v-2.438h-.124a4.91 4.91 0 0 1-1.125 1.454 5.343 5.343 0 0 1-1.688.968c-.656.23-1.416.344-2.281.344Zm1.39-3.344c.709 0 1.334-.14 1.876-.422.552-.291.979-.677 1.28-1.156.313-.49.47-1.036.47-1.64v-1.86a2.601 2.601 0 0 1-.626.266c-.26.083-.552.156-.874.219-.323.062-.646.12-.97.172-.322.041-.614.083-.874.125a5.807 5.807 0 0 0-1.5.406c-.427.177-.76.422-1 .734-.23.302-.344.682-.344 1.14 0 .657.24 1.157.719 1.5.479.345 1.093.516 1.843.516ZM1.5 52V28.719h9.172c1.76 0 3.26.338 4.5 1.015 1.25.667 2.203 1.594 2.86 2.782.666 1.187 1 2.557 1 4.109 0 1.542-.334 2.901-1 4.078-.667 1.177-1.636 2.1-2.907 2.766-1.26.656-2.787.984-4.578.984H4.703v-3.937H9.75c.948 0 1.73-.167 2.344-.5.625-.334 1.088-.792 1.39-1.375.313-.584.47-1.256.47-2.016 0-.781-.157-1.458-.47-2.031-.302-.584-.765-1.037-1.39-1.36-.625-.323-1.412-.484-2.36-.484H6.406V52H1.5Zm26.516.344c-1.76 0-3.286-.375-4.578-1.125a7.745 7.745 0 0 1-2.969-3.157c-.687-1.354-1.03-2.927-1.03-4.718 0-1.813.343-3.39 1.03-4.735.698-1.354 1.688-2.406 2.97-3.156 1.29-.76 2.817-1.14 4.577-1.14 1.771 0 3.297.38 4.578 1.14a7.488 7.488 0 0 1 2.97 3.156c.697 1.344 1.046 2.922 1.046 4.735 0 1.791-.349 3.364-1.047 4.718a7.611 7.611 0 0 1-2.969 3.157c-1.28.75-2.807 1.125-4.578 1.125Zm.032-3.782c.802 0 1.474-.223 2.015-.671.542-.459.948-1.084 1.219-1.875.281-.792.422-1.693.422-2.703 0-1.021-.14-1.922-.422-2.704-.271-.78-.677-1.395-1.219-1.843-.541-.448-1.213-.672-2.015-.672-.813 0-1.495.224-2.047.672-.542.448-.954 1.062-1.235 1.843-.27.782-.406 1.683-.406 2.703 0 1.01.135 1.912.406 2.704.282.791.693 1.416 1.235 1.875.552.448 1.234.672 2.046.672ZM38.11 52V34.531h4.672v3.063h.187c.323-1.084.86-1.901 1.61-2.453.75-.563 1.609-.844 2.578-.844.25 0 .51.016.78.047.282.02.532.062.75.125v4.281a4.959 4.959 0 0 0-.952-.172 8.53 8.53 0 0 0-1.11-.078c-.698 0-1.328.156-1.89.469a3.342 3.342 0 0 0-1.328 1.281c-.313.542-.47 1.167-.47 1.875V52h-4.827Zm21.532-17.469v3.657H49.127V34.53h10.515Zm-8.126-4.156h4.829v16.25c0 .583.13 1.016.39 1.297.26.27.677.406 1.25.406.188 0 .396-.016.625-.047.23-.031.427-.067.594-.11l.766 3.626c-.532.156-1.047.27-1.547.344-.49.073-.974.109-1.453.109-1.74 0-3.084-.432-4.032-1.297-.947-.875-1.422-2.104-1.422-3.687V30.375Zm19.032 4.156v3.657H59.784V34.53h10.765ZM62.252 52V33.266c0-1.26.245-2.308.735-3.141a4.765 4.765 0 0 1 2.031-1.875c.865-.417 1.844-.625 2.938-.625.75 0 1.432.063 2.046.188a16.04 16.04 0 0 1 1.376.296l-.844 3.625a10.86 10.86 0 0 0-.703-.156 4.544 4.544 0 0 0-.86-.078c-.708 0-1.203.167-1.484.5-.281.323-.422.781-.422 1.375V52h-4.813Zm16.86.344c-1.76 0-3.286-.375-4.578-1.125a7.745 7.745 0 0 1-2.968-3.157c-.688-1.354-1.032-2.927-1.032-4.718 0-1.813.344-3.39 1.032-4.735.697-1.354 1.687-2.406 2.968-3.156 1.292-.76 2.818-1.14 4.578-1.14 1.771 0 3.297.38 4.579 1.14a7.488 7.488 0 0 1 2.968 3.156c.698 1.344 1.047 2.922 1.047 4.735 0 1.791-.349 3.364-1.047 4.718a7.611 7.611 0 0 1-2.968 3.157c-1.282.75-2.808 1.125-4.579 1.125Zm.032-3.782c.802 0 1.474-.223 2.015-.671.542-.459.948-1.084 1.22-1.875.28-.792.421-1.693.421-2.703 0-1.021-.14-1.922-.422-2.704-.27-.78-.677-1.395-1.219-1.843-.541-.448-1.213-.672-2.015-.672-.813 0-1.495.224-2.047.672-.542.448-.953 1.062-1.234 1.843-.271.782-.407 1.683-.407 2.703 0 1.01.136 1.912.406 2.704.282.791.693 1.416 1.235 1.875.552.448 1.234.672 2.047.672ZM94.035 28.72V52h-4.828V28.719h4.828ZM96.255 52V34.531h4.827V52h-4.828Zm2.406-19.703c-.72 0-1.334-.24-1.844-.719s-.766-1.057-.766-1.734.255-1.25.766-1.719a2.598 2.598 0 0 1 1.844-.719c.729 0 1.349.24 1.859.719.51.469.766 1.042.766 1.719s-.256 1.255-.766 1.734c-.51.48-1.13.719-1.86.719Zm12.5 20.047c-1.76 0-3.286-.375-4.578-1.125a7.748 7.748 0 0 1-2.969-3.157c-.687-1.354-1.031-2.927-1.031-4.718 0-1.813.344-3.39 1.031-4.735.698-1.354 1.688-2.406 2.969-3.156 1.292-.76 2.818-1.14 4.578-1.14 1.771 0 3.297.38 4.578 1.14a7.484 7.484 0 0 1 2.969 3.156c.698 1.344 1.047 2.922 1.047 4.735 0 1.791-.349 3.364-1.047 4.718a7.606 7.606 0 0 1-2.969 3.157c-1.281.75-2.807 1.125-4.578 1.125Zm.031-3.782c.803 0 1.474-.223 2.016-.671.542-.459.948-1.084 1.219-1.875.281-.792.422-1.693.422-2.703 0-1.021-.141-1.922-.422-2.704-.271-.78-.677-1.395-1.219-1.843-.542-.448-1.213-.672-2.016-.672-.812 0-1.494.224-2.046.672-.542.448-.954 1.062-1.235 1.843-.271.782-.406 1.683-.406 2.703 0 1.01.135 1.912.406 2.704.281.791.693 1.416 1.235 1.875.552.448 1.234.672 2.046.672Z" fill="#0A0A0A"/></svg>