<svg width="192" height="36" fill="none" xmlns="http://www.w3.org/2000/svg"><path d="M180.746 33.985c-2.127 0-3.986-.465-5.578-1.394-1.579-.943-2.809-2.251-3.692-3.925-.883-1.686-1.324-3.651-1.324-5.896 0-2.35.434-4.382 1.304-6.095.869-1.726 2.08-3.054 3.632-3.984 1.565-.943 3.397-1.414 5.497-1.414 2.181 0 4.033.498 5.558 1.494 1.538.996 2.689 2.417 3.451 4.263.776 1.846 1.11 4.043 1.003 6.593h-3.611v-1.275c-.04-2.643-.582-4.614-1.626-5.916-1.043-1.315-2.594-1.972-4.655-1.972-2.207 0-3.885.704-5.036 2.112-1.15 1.407-1.725 3.426-1.725 6.055 0 2.536.575 4.502 1.725 5.896 1.151 1.394 2.789 2.092 4.916 2.092 1.432 0 2.675-.326 3.732-.977 1.057-.65 1.886-1.586 2.488-2.808l3.431 1.175c-.843 1.9-2.113 3.373-3.812 4.422-1.685 1.036-3.578 1.554-5.678 1.554Zm-8.006-10.358v-2.848h16.011v2.848H172.74ZM159.186 33.387V11.875h3.19v5.198l-.521-.677a8.014 8.014 0 0 1 .983-1.832 6.145 6.145 0 0 1 1.384-1.375 6.153 6.153 0 0 1 1.906-1.036 8.131 8.131 0 0 1 2.167-.418 7.009 7.009 0 0 1 2.067.14V15.2c-.749-.2-1.572-.252-2.468-.16a5.033 5.033 0 0 0-2.488.977 5.34 5.34 0 0 0-1.625 1.792 7.726 7.726 0 0 0-.783 2.291c-.147.81-.22 1.64-.22 2.49v10.796h-3.592ZM145.181 33.985c-1.619 0-2.976-.292-4.073-.877-1.084-.597-1.906-1.38-2.468-2.35a6.366 6.366 0 0 1-.823-3.187c0-1.129.214-2.105.643-2.928a5.733 5.733 0 0 1 1.845-2.072c.79-.558 1.733-.996 2.83-1.314a32.523 32.523 0 0 1 3.45-.718 119.29 119.29 0 0 1 3.893-.577c1.311-.173 2.535-.339 3.672-.498l-1.284.737c.04-1.912-.348-3.327-1.164-4.243-.803-.916-2.194-1.374-4.173-1.374-1.311 0-2.462.299-3.452.896-.976.584-1.665 1.54-2.066 2.868l-3.391-1.015c.522-1.886 1.532-3.367 3.03-4.442 1.498-1.076 3.471-1.614 5.919-1.614 1.966 0 3.652.352 5.056 1.056 1.418.69 2.435 1.74 3.05 3.147a6.8 6.8 0 0 1 .582 2.171c.08.77.12 1.58.12 2.43v13.306h-3.17v-5.159l.742.478c-.816 1.74-1.959 3.055-3.431 3.944-1.458.89-3.237 1.335-5.337 1.335Zm.542-2.968c1.284 0 2.394-.226 3.33-.677.95-.465 1.713-1.07 2.288-1.813.575-.757.95-1.58 1.123-2.47a8.063 8.063 0 0 0 .321-2.21c.027-.824.04-1.455.04-1.893l1.245.538c-1.164.159-2.308.312-3.432.458a78.61 78.61 0 0 0-3.19.478c-1.003.16-1.906.352-2.708.577a8.864 8.864 0 0 0-1.666.718c-.508.292-.923.67-1.244 1.135-.308.451-.461 1.016-.461 1.693 0 .584.147 1.142.441 1.673.308.531.776.963 1.405 1.295.642.332 1.478.498 2.508.498ZM115.986 33.387l-6.621-21.532 3.551.02 4.836 15.736 4.876-15.737h3.149l4.856 15.737 4.856-15.737h3.531l-6.621 21.513h-2.97l-5.237-16.354-5.236 16.354h-2.97ZM98.15 33.985c-1.618 0-2.976-.292-4.073-.877-1.083-.597-1.906-1.38-2.468-2.35a6.36 6.36 0 0 1-.822-3.187c0-1.129.214-2.105.642-2.928a5.74 5.74 0 0 1 1.846-2.072c.789-.558 1.732-.996 2.829-1.314 1.03-.28 2.18-.518 3.451-.718 1.284-.212 2.582-.405 3.892-.577 1.311-.173 2.535-.339 3.672-.498l-1.284.737c.04-1.912-.348-3.327-1.164-4.243-.802-.916-2.193-1.374-4.173-1.374-1.311 0-2.462.299-3.451.896-.977.584-1.665 1.54-2.067 2.868l-3.39-1.015c.52-1.886 1.53-3.367 3.029-4.442 1.498-1.076 3.471-1.614 5.919-1.614 1.966 0 3.652.352 5.056 1.056 1.418.69 2.435 1.74 3.05 3.147a6.75 6.75 0 0 1 .582 2.171c.08.77.12 1.58.12 2.43v13.306h-3.17v-5.159l.743.478c-.817 1.74-1.96 3.055-3.432 3.944-1.458.89-3.236 1.335-5.336 1.335Zm.542-2.968c1.284 0 2.395-.226 3.331-.677.95-.465 1.712-1.07 2.287-1.813.575-.757.95-1.58 1.124-2.47a8.14 8.14 0 0 0 .321-2.21c.027-.824.04-1.455.04-1.893l1.244.538c-1.164.159-2.307.312-3.431.458a78.346 78.346 0 0 0-3.19.478c-1.004.16-1.906.352-2.71.577a8.867 8.867 0 0 0-1.664.718c-.509.292-.923.67-1.245 1.135-.307.451-.46 1.016-.46 1.693 0 .584.146 1.142.44 1.673.308.531.776.963 1.405 1.295.642.332 1.478.498 2.508.498ZM84.807 33.387V4.106h3.571v29.281h-3.571ZM72.495 33.985c-2.127 0-3.987-.465-5.578-1.394-1.579-.943-2.81-2.251-3.692-3.925-.883-1.686-1.325-3.651-1.325-5.896 0-2.35.435-4.382 1.305-6.095.87-1.726 2.08-3.054 3.632-3.984 1.564-.943 3.397-1.414 5.497-1.414 2.18 0 4.033.498 5.558 1.494 1.538.996 2.689 2.417 3.45 4.263.777 1.846 1.111 4.043 1.004 6.593h-3.612v-1.275c-.04-2.643-.581-4.614-1.625-5.916-1.043-1.315-2.595-1.972-4.655-1.972-2.207 0-3.885.704-5.036 2.112-1.15 1.407-1.725 3.426-1.725 6.055 0 2.536.575 4.502 1.725 5.896 1.15 1.394 2.79 2.092 4.916 2.092 1.431 0 2.675-.326 3.732-.977 1.057-.65 1.886-1.586 2.488-2.808l3.431 1.175c-.843 1.9-2.113 3.373-3.812 4.422-1.686 1.036-3.578 1.554-5.678 1.554Zm-8.006-10.358v-2.848H80.5v2.848H64.49ZM49.918 33.984c-2.02 0-3.752-.497-5.196-1.493-1.445-1.01-2.562-2.37-3.35-4.084-.777-1.713-1.165-3.645-1.165-5.796 0-2.152.388-4.084 1.164-5.797.789-1.713 1.906-3.06 3.35-4.043 1.446-.996 3.17-1.494 5.177-1.494 2.047 0 3.766.491 5.157 1.474 1.391.982 2.44 2.33 3.15 4.043.722 1.713 1.084 3.652 1.084 5.817 0 2.138-.362 4.07-1.084 5.796-.71 1.713-1.759 3.074-3.15 4.084-1.391.996-3.103 1.493-5.137 1.493Zm.442-3.246c1.458 0 2.655-.346 3.591-1.036.937-.704 1.626-1.667 2.067-2.888.455-1.235.682-2.636.682-4.203 0-1.594-.227-2.995-.682-4.203-.441-1.222-1.124-2.171-2.047-2.849-.922-.69-2.093-1.035-3.511-1.035-1.471 0-2.688.358-3.652 1.075-.95.717-1.658 1.687-2.127 2.908-.454 1.222-.682 2.59-.682 4.104 0 1.527.234 2.908.702 4.143.469 1.222 1.17 2.191 2.107 2.908.95.717 2.134 1.076 3.552 1.076Zm6.34 2.649V17.551H56.3V4.703h3.592v28.684H56.7ZM188.053 6.968v-.115l2.327-3.892h-2.123v-.858H192v.115l-2.314 3.885h2.246v.865h-3.879ZM183.203 6.968l1.497-4.865h1.382l1.497 4.865h-.953l-1.334-4.29h.177l-1.313 4.29h-.953Zm.899-1.014v-.858h2.586v.858h-2.586Z" fill="#000"/><path fill-rule="evenodd" clip-rule="evenodd" d="M18.131 0H0v36h18.131c10.014 0 18.132-8.059 18.132-18S28.145 0 18.13 0Zm1.7 30.871c-.416-.122-.844-.614-.934-1.086-.06-.307.01-.518.454-1.371 1.794-3.442 2.574-6.608 2.574-10.448 0-3.711-.689-6.603-2.403-10.066-.369-.741-.668-1.435-.668-1.535 0-.371.31-.906.646-1.112.46-.286 1.234-.233 1.608.11.144.133.513.737.823 1.34a25.266 25.266 0 0 1 2.484 7.737c.256 1.689.31 4.887.101 6.434-.38 2.848-1.138 5.395-2.356 7.884-.737 1.504-1.196 2.124-1.58 2.124-.075 0-.204.02-.278.042-.075.021-.289 0-.47-.053Zm-4.994-2.59c-.641-.185-1.106-.968-.919-1.55.043-.144.347-.795.673-1.452 1.373-2.78 1.945-5.756 1.667-8.679-.23-2.404-.663-3.918-1.758-6.132-.732-1.488-.769-1.715-.341-2.319.405-.572 1.42-.662 1.95-.18.368.334 1.516 2.711 1.96 4.056 1.463 4.448 1.239 9.23-.636 13.598-.967 2.24-1.645 2.934-2.596 2.659Zm-5.983-3.637c.096.418.438.836.833 1.011.177.08.476.122.663.106.614-.08.919-.408 1.533-1.641 1.068-2.156 1.453-3.76 1.458-6.095.006-2.272-.406-4.046-1.41-6.09-.652-1.329-1.031-1.694-1.763-1.694-.432 0-.566.047-.876.339-.625.587-.609.884.134 2.372 1.688 3.394 1.672 6.735-.06 10.21-.47.942-.57 1.228-.512 1.482ZM4.88 23.209c-.315-.127-.673-.55-.78-.922-.118-.413-.021-.74.449-1.509.609-.99.748-1.52.748-2.811 0-1.293-.14-1.827-.748-2.812-.209-.334-.412-.736-.46-.895-.197-.652.353-1.451 1.09-1.589.625-.116 1.052.16 1.63 1.049 1.66 2.573 1.66 6.004 0 8.557-.588.895-1.24 1.212-1.93.932Z" fill="#000"/></svg>