<svg width="170" height="36" fill="none" xmlns="http://www.w3.org/2000/svg"><path d="M6.63 0H.588A.594.594 0 0 0 0 .6v11.632L6.63 0ZM0 15.974H9.271c.722 0 1.288.63 1.227 1.363L9.7 26.835c-.113 1.35 1.661 1.9 2.304.714l9.574-17.662c.453-.836-.14-1.862-1.077-1.862h-9.214c-.721 0-1.288-.63-1.226-1.362L10.62 0h9.298c8.567 0 12.408 11.008 5.782 16.573l-5.18 4.35a.872.872 0 0 0-.153 1.157l8.938 12.974c.274.398-.004.946-.48.946H.587A.594.594 0 0 1 0 35.4V15.974ZM100.652 19.488v9.097h4.919V18.372c0-1.204-.257-2.255-.772-3.153a5.167 5.167 0 0 0-2.121-2.134c-.923-.526-1.994-.789-3.216-.789-1.2 0-2.261.263-3.182.789a5.434 5.434 0 0 0-1.03.727V5.4h-4.918v23.185h4.919v-9.097c0-.547.118-1.029.354-1.445.236-.438.557-.766.964-.985.407-.24.879-.361 1.414-.361.772 0 1.405.263 1.897.788.515.503.772 1.171.772 2.003Z" fill="#000"/><path fill-rule="evenodd" clip-rule="evenodd" d="M46 19.029v9.556h-5.046V5.4h9.258c1.5 0 2.819.296 3.955.886 1.135.57 2.025 1.369 2.668 2.398.643 1.029.964 2.211.964 3.546 0 1.358-.321 2.551-.964 3.58-.643 1.007-1.543 1.795-2.7 2.364a8.052 8.052 0 0 1-2.127.688l7.27 9.723h-5.98l-6.769-9.556H46Zm0-3.81h3.602c1.007 0 1.779-.263 2.315-.788.556-.526.835-1.237.835-2.135 0-.832-.268-1.521-.804-2.069-.535-.547-1.307-.82-2.314-.82H46v5.812Z" fill="#000"/><path fill-rule="evenodd" clip-rule="evenodd" d="M62.525 27.895c1.329.7 2.84 1.051 4.532 1.051 1.308 0 2.508-.23 3.602-.69a7.31 7.31 0 0 0 2.797-2.068l-2.701-2.759a4.775 4.775 0 0 1-1.64 1.248c-.621.263-1.317.394-2.09.394-.835 0-1.564-.175-2.186-.526a3.894 3.894 0 0 1-1.414-1.543 4.524 4.524 0 0 1-.269-.728l11.2-.027c.085-.416.139-.777.16-1.084a8.273 8.273 0 0 0 .061-.73l.002-.084.002-.105c0-1.555-.343-2.934-1.029-4.138a7.222 7.222 0 0 0-2.765-2.825c-1.179-.678-2.54-1.018-4.083-1.018-1.586 0-3.011.362-4.276 1.084a8.16 8.16 0 0 0-3.022 2.989c-.729 1.247-1.093 2.67-1.093 4.269 0 1.598.375 3.032 1.125 4.302a8.033 8.033 0 0 0 3.087 2.988Zm.632-9.07a4.111 4.111 0 0 1 .236-.65c.322-.657.76-1.16 1.318-1.51.578-.373 1.254-.56 2.025-.56.728 0 1.34.165 1.833.494l.066.04.066.043a2.617 2.617 0 0 1 .31.247c.3.277.538.626.715 1.049a4.4 4.4 0 0 1 .261.827l-6.83.02Z" fill="#000"/><path d="M83.225 28.946c-1.608 0-3.066-.361-4.373-1.084a8.03 8.03 0 0 1-3.086-2.988c-.75-1.27-1.126-2.693-1.126-4.27 0-1.597.376-3.02 1.126-4.268a8.264 8.264 0 0 1 3.118-2.989c1.308-.722 2.775-1.084 4.405-1.084 1.22 0 2.335.22 3.343.657.513.208.998.47 1.453.787.456.318.883.69 1.28 1.118l-3.151 3.218a3.34 3.34 0 0 0-1.286-.92 3.638 3.638 0 0 0-.717-.212 4.996 4.996 0 0 0-1.43-.053l-.088.011-.056.009a3.479 3.479 0 0 0-1.246.443 3.408 3.408 0 0 0-1.285 1.313c-.3.548-.45 1.194-.45 1.938s.15 1.401.45 1.97a3.582 3.582 0 0 0 3.183 1.84c.643 0 1.21-.11 1.703-.329.515-.24.954-.57 1.318-.985l3.12 3.218a8.496 8.496 0 0 1-2.766 2.003c-1.029.438-2.175.657-3.44.657Z" fill="#000"/><path fill-rule="evenodd" clip-rule="evenodd" d="M113.97 28.913c-1.436 0-2.722-.36-3.857-1.084-1.115-.722-2.005-1.707-2.669-2.955-.643-1.248-.965-2.671-.965-4.27 0-1.598.322-3.02.965-4.268.664-1.248 1.554-2.233 2.669-2.956 1.135-.723 2.421-1.084 3.857-1.084 1.05 0 1.993.208 2.829.624a5.602 5.602 0 0 1 1.479 1.03v-1.325h4.822v15.96h-4.822v-1.293a5.368 5.368 0 0 1-1.178.859 6.048 6.048 0 0 1-.269.138c-.857.416-1.811.624-2.861.624Zm.997-4.532c1.051 0 1.896-.35 2.54-1.05.643-.723.964-1.632.964-2.726a4.71 4.71 0 0 0-.113-1.051 3.75 3.75 0 0 0-.337-.92 2.991 2.991 0 0 0-1.222-1.313 3.047 3.047 0 0 0-.949-.399 3.705 3.705 0 0 0-.851-.094c-.342 0-.667.041-.972.123a3.307 3.307 0 0 0-.861.37 3.49 3.49 0 0 0-1.254 1.313c-.299.57-.449 1.226-.449 1.97 0 .723.15 1.37.449 1.938.3.57.719 1.018 1.254 1.347a3.378 3.378 0 0 0 1.801.492Z" fill="#000"/><path d="M130.197 12.624h-4.919v15.96h4.919v-8.767c0-1.03.236-1.796.707-2.3.493-.525 1.147-.787 1.961-.787.408 0 .772.065 1.094.197.32.131.589.317.803.558l2.925-3.777a3.803 3.803 0 0 0-1.51-1.05c-.557-.242-1.211-.362-1.962-.362-1.714 0-3.053.515-4.018 1.544v-1.216Z" fill="#000"/><path fill-rule="evenodd" clip-rule="evenodd" d="M143.895 35.744c-1.714 0-3.225-.307-4.532-.92-1.287-.59-2.305-1.433-3.055-2.529l3.022-3.086c.557.678 1.179 1.193 1.865 1.543.707.35 1.553.525 2.54.525 1.221 0 2.175-.306 2.861-.919.707-.613 1.061-1.478 1.061-2.594v-1.008c-.335.273-.71.51-1.125.712-.858.416-1.811.624-2.861.624-1.437 0-2.712-.35-3.827-1.05-1.114-.701-1.993-1.654-2.636-2.858-.643-1.204-.964-2.54-.964-4.006 0-1.489.321-2.824.964-4.007.643-1.204 1.522-2.145 2.636-2.824 1.115-.7 2.39-1.05 3.827-1.05 1.071 0 2.025.207 2.861.623a5.125 5.125 0 0 1 1.221.777v-1.072h4.823v15.007c0 1.642-.376 3.066-1.126 4.27-.75 1.203-1.778 2.145-3.086 2.823-1.308.68-2.797 1.019-4.469 1.019Zm.708-12.118c.686 0 1.275-.153 1.768-.46.126-.075.245-.157.356-.244.34-.267.607-.591.801-.97a3.628 3.628 0 0 0 .376-1.169c.029-.196.042-.397.042-.605 0-.657-.139-1.248-.418-1.774a2.924 2.924 0 0 0-1.157-1.248c-.493-.306-1.082-.46-1.768-.46a3.94 3.94 0 0 0-.587.044l-.098.016-.087.016a3.27 3.27 0 0 0-.82.287 3.139 3.139 0 0 0-1.366 1.346 3.476 3.476 0 0 0-.322.874 4.086 4.086 0 0 0-.096.899c0 .613.139 1.193.418 1.74.279.526.664.942 1.157 1.248.276.165.578.285.904.362.281.065.58.098.897.098ZM157.945 27.895c1.328.7 2.839 1.051 4.532 1.051 1.307 0 2.508-.23 3.6-.69a7.302 7.302 0 0 0 2.798-2.068l-2.701-2.759a4.77 4.77 0 0 1-1.64 1.248c-.62.263-1.318.394-2.089.394-.836 0-1.565-.175-2.186-.526a3.81 3.81 0 0 1-1.225-1.216 4.211 4.211 0 0 1-.19-.327 4.477 4.477 0 0 1-.269-.728l11.2-.027c.042-.206.077-.398.103-.576.028-.184.047-.353.058-.508.015-.116.027-.229.037-.339.018-.203.027-.396.027-.58 0-1.555-.343-2.934-1.029-4.138a7.216 7.216 0 0 0-2.764-2.825c-1.18-.678-2.54-1.018-4.083-1.018-1.586 0-3.012.362-4.277 1.084a8.16 8.16 0 0 0-3.021 2.989c-.729 1.247-1.094 2.67-1.094 4.269 0 1.598.375 3.032 1.126 4.302a8.015 8.015 0 0 0 3.087 2.988Zm.632-9.07c.064-.23.142-.447.235-.65.184-.375.405-.7.666-.975a3.312 3.312 0 0 1 .652-.536c.579-.372 1.254-.558 2.025-.558.729 0 1.34.164 1.833.492.197.118.374.257.533.42.257.26.466.58.624.96.108.247.195.523.262.827l-6.83.02Z" fill="#000"/></svg>